<svg xmlns="http://www.w3.org/2000/svg" xmlns:xlink="http://www.w3.org/1999/xlink" width="512" height="512" x="0" y="0" viewBox="0 0 43.349 43.349" style="enable-background:new 0 0 512 512" xml:space="preserve" fill-rule="evenodd" class=""><g><path d="M18.792 40.467C8.426 40.467 0 32.04 0 21.675S8.426 2.883 18.792 2.883c5.085 0 9.835 1.975 13.402 5.6 3.097-1.804 6.638-3.12 10.608-3.485.554-.065.76.757.247.987-.084.034-3.85 1.754-8.492 5.431 1.997 3.045 3.027 6.587 3.027 10.258 0 10.366-8.426 18.793-18.792 18.793zM31.316 9.014C27.976 5.69 23.563 3.87 18.792 3.87c-9.802.035-17.77 8.003-17.77 17.805s7.968 17.77 17.77 17.77 17.77-7.969 17.77-17.77c0-3.43-.975-6.732-2.805-9.613a52.213 52.213 0 0 0-2.177 1.898c5.862 9.609-.989 22.628-12.788 22.628-8.215 0-14.914-6.699-14.914-14.913S10.577 6.76 18.792 6.76c3.772 0 7.347 1.408 10.094 3.94a32.816 32.816 0 0 1 2.43-1.687zm2.082 2a.572.572 0 0 1 .28-.226 53.626 53.626 0 0 1 6.268-4.345C30.04 8.665 23.2 16.985 19.885 22.027c-.208.296-.675.277-.846-.035-.987-1.657-3.843-5.782-6.03-5.782-.105 0-.21 0-.316.035-1.516.317-1.834.987-1.975 1.622-.141.6-.035.846.882 1.445 3.878 2.468 6.628 7.827 7.686 10.19 2.807-6.768 7.036-12.005 11.125-15.869a.54.54 0 0 1 .306-.287 53.748 53.748 0 0 1 2.681-2.332zM19.286 31.335a.502.502 0 0 1-.459-.317c-.035-.07-3.067-7.898-7.756-10.86-.917-.564-1.622-1.163-1.34-2.503.282-1.304 1.163-2.045 2.75-2.397 2.82-.6 5.853 3.772 6.98 5.57 1.94-2.82 4.83-6.432 8.63-9.502a13.853 13.853 0 0 0-9.3-3.578c-7.65 0-13.89 6.24-13.89 13.892 0 7.65 6.24 13.89 13.89 13.89s13.892-6.24 13.892-13.89c0-2.452-.65-4.844-1.867-6.962-4.13 3.966-8.368 9.37-11.037 16.375a.563.563 0 0 1-.493.282z" fill="#21004d" opacity="1" data-original="#000000" class=""></path><path fill="#dd2b1c" d="M11.6 19.312c3.878 2.468 6.628 7.827 7.686 10.19 2.807-6.768 7.036-12.005 11.125-15.869a.54.54 0 0 1 .306-.287 53.748 53.748 0 0 1 2.681-2.332.572.572 0 0 1 .28-.226 53.626 53.626 0 0 1 6.268-4.345C30.04 8.665 23.2 16.985 19.885 22.027c-.208.296-.675.277-.846-.035-.987-1.657-3.843-5.782-6.03-5.782-.105 0-.21 0-.316.035-1.516.317-1.834.987-1.975 1.622-.141.6-.035.846.882 1.445z" opacity="1" data-original="#00b42c" class=""></path><path fill="#febf02" d="M18.792 36.588c-8.215 0-14.914-6.699-14.914-14.913S10.577 6.76 18.792 6.76c3.771 0 7.346 1.408 10.094 3.94a32.816 32.816 0 0 1 2.43-1.687C27.976 5.69 23.563 3.87 18.792 3.87c-9.802.035-17.77 8.003-17.77 17.805s7.968 17.77 17.77 17.77 17.77-7.969 17.77-17.77c0-3.43-.975-6.732-2.805-9.613a52.213 52.213 0 0 0-2.177 1.898c5.862 9.609-.989 22.628-12.788 22.628z" opacity="1" data-original="#9ed781" class=""></path></g></svg>